<?xml version="1.0" encoding="UTF-8" standalone="no"?>
<!DOCTYPE svg PUBLIC "-//W3C//DTD SVG 1.1//EN" "http://www.w3.org/Graphics/SVG/1.1/DTD/svg11.dtd">
<svg width="100%" height="100%" viewBox="0 0 512 512" version="1.1" xmlns="http://www.w3.org/2000/svg" xmlns:xlink="http://www.w3.org/1999/xlink" xml:space="preserve" xmlns:serif="http://www.serif.com/" style="fill-rule:evenodd;clip-rule:evenodd;stroke-linejoin:round;stroke-miterlimit:2;">
    <g transform="matrix(1,0,0,1,-40,-260)">
        <path d="M502,401.559L502,630.441C502,680.974 460.974,722 410.441,722L181.559,722C131.026,722 90,680.974 90,630.441L90,401.559C90,351.026 131.026,310 181.559,310L410.441,310C460.974,310 502,351.026 502,401.559Z" style="fill:rgb(38,134,254);"/>
    </g>
    <g id="Back" opacity="0.7">
        <g transform="matrix(0.885794,-0.204502,0.207691,0.899609,-16.4449,18.2192)">
            <path d="M383,231.099L383,351.901C383,365.201 372.033,376 358.525,376L144.475,376C130.967,376 120,365.201 120,351.901L120,231.099C120,217.799 130.967,207 144.475,207L358.525,207C372.033,207 383,217.799 383,231.099Z" style="fill:white;"/>
        </g>
        <g transform="matrix(0.92081,-0.212586,0.168639,0.730455,-0.893323,113.345)">
            <rect x="122.085" y="164.71" width="252.902" height="40.998" style="fill:rgb(38,134,254);fill-opacity:0.35;"/>
        </g>
    </g>
    <g id="Front">
        <g transform="matrix(1.0038,0,0,0.988166,-1.45627,4.4497)">
            <path d="M383,231.099L383,351.901C383,365.201 372.37,376 359.276,376L143.724,376C130.63,376 120,365.201 120,351.901L120,231.099C120,217.799 130.63,207 143.724,207L359.276,207C372.37,207 383,217.799 383,231.099Z" style="fill:white;"/>
        </g>
        <g transform="matrix(1.03125,0,0,1.125,-4.5,-43)">
            <path d="M176,339.978L176,340.022C176,342.217 174.055,344 171.66,344L148.34,344C145.945,344 144,342.217 144,340.022L144,339.978C144,337.783 145.945,336 148.34,336L171.66,336C174.055,336 176,337.783 176,339.978Z" style="fill:rgb(38,134,254);"/>
        </g>
        <g transform="matrix(1.03125,0,0,1.125,44.5,-43)">
            <path d="M176,339.978L176,340.022C176,342.217 174.055,344 171.66,344L148.34,344C145.945,344 144,342.217 144,340.022L144,339.978C144,337.783 145.945,336 148.34,336L171.66,336C174.055,336 176,337.783 176,339.978Z" style="fill:rgb(38,134,254);"/>
        </g>
        <g transform="matrix(1.03125,0,0,1.125,93.5,-43)">
            <path d="M176,339.978L176,340.022C176,342.217 174.055,344 171.66,344L148.34,344C145.945,344 144,342.217 144,340.022L144,339.978C144,337.783 145.945,336 148.34,336L171.66,336C174.055,336 176,337.783 176,339.978Z" style="fill:rgb(38,134,254);"/>
        </g>
        <g transform="matrix(0.966667,0,0,1,5.76667,0)">
            <path d="M203,256.562L203,280.438C203,284.06 199.958,287 196.212,287L149.788,287C146.042,287 143,284.06 143,280.438L143,256.562C143,252.94 146.042,250 149.788,250L196.212,250C199.958,250 203,252.94 203,256.562Z" style="fill:rgb(38,134,254);"/>
        </g>
        <g transform="matrix(1.02778,0,0,1.02778,11.6389,-9.80556)">
            <circle cx="319" cy="335" r="18" style="fill:rgb(142,188,252);"/>
        </g>
        <g transform="matrix(1.02778,0,0,1.02778,-10.3611,-9.80556)">
            <circle cx="319" cy="335" r="18" style="fill:rgb(38,134,254);"/>
        </g>
    </g>
</svg>
