<?xml version="1.0" encoding="UTF-8" standalone="no"?>
<!DOCTYPE svg PUBLIC "-//W3C//DTD SVG 1.1//EN" "http://www.w3.org/Graphics/SVG/1.1/DTD/svg11.dtd">
<svg width="100%" height="100%" viewBox="0 0 500 500" version="1.1" xmlns="http://www.w3.org/2000/svg" xmlns:xlink="http://www.w3.org/1999/xlink" xml:space="preserve" xmlns:serif="http://www.serif.com/" style="fill-rule:evenodd;clip-rule:evenodd;stroke-linejoin:round;stroke-miterlimit:2;">
    <g transform="matrix(1,0,0,1,-2,-7)">
        <path d="M457,152.608C457,97.081 411.919,52 356.392,52L147.608,52C92.081,52 47,97.081 47,152.608L47,361.392C47,416.919 92.081,462 147.608,462L356.392,462C411.919,462 457,416.919 457,361.392L457,152.608Z" style="fill:rgb(235,233,154);"/>
    </g>
    <g transform="matrix(0.449783,0,0,0.449783,250,250)">
        <g transform="matrix(1,0,0,1,-320,-320)">
            <path d="M576,160C576,210.2 516.9,285.1 491.4,315C487.6,319.4 482,321.1 476.9,320L384,320C366.3,320 352,334.3 352,352C352,369.7 366.3,384 384,384L480,384C533,384 576,427 576,480C576,533 533,576 480,576L203.6,576C212.3,566.1 222.9,553.4 233.6,539.2C239.9,530.8 246.4,521.6 252.6,512L480,512C497.7,512 512,497.7 512,480C512,462.3 497.7,448 480,448L384,448C331,448 288,405 288,352C288,299 331,256 384,256L423.8,256C402.8,224.5 384,188.3 384,160C384,107 427,64 480,64C533,64 576,107 576,160ZM181.1,553.1C177.3,557.4 173.9,561.2 171,564.4L169.2,566.4L169,566.2C163,570.8 154.4,570.2 149,564.4C123.8,537 64,466.5 64,416C64,363 107,320 160,320C213,320 256,363 256,416C256,446 234.9,483 212.5,513.9C201.8,528.6 190.8,541.9 181.7,552.4L181.1,553.1ZM192,416C192,398.3 177.7,384 160,384C142.3,384 128,398.3 128,416C128,433.7 142.3,448 160,448C177.7,448 192,433.7 192,416ZM480,192C497.7,192 512,177.7 512,160C512,142.3 497.7,128 480,128C462.3,128 448,142.3 448,160C448,177.7 462.3,192 480,192Z" style="fill-rule:nonzero;"/>
        </g>
    </g>
</svg>
