<?xml version="1.0" encoding="UTF-8" standalone="no"?>
<!DOCTYPE svg PUBLIC "-//W3C//DTD SVG 1.1//EN" "http://www.w3.org/Graphics/SVG/1.1/DTD/svg11.dtd">
<svg width="100%" height="100%" viewBox="0 0 1000 600" version="1.1" xmlns="http://www.w3.org/2000/svg" xmlns:xlink="http://www.w3.org/1999/xlink" xml:space="preserve" xmlns:serif="http://www.serif.com/" style="fill-rule:evenodd;clip-rule:evenodd;">
    <g transform="matrix(1,0,0,1,0,29)">
        <g id="AliPay" transform="matrix(1,0,0,1,23,80)">
            <g transform="matrix(1.01198,0,0,1.01198,445.029,-3.24767)">
                <path d="M456.5,120.8L456.5,421.2C456.5,441.924 439.674,458.75 418.95,458.75L118.55,458.75C97.826,458.75 81,441.924 81,421.2L81,120.8C81,100.076 97.826,83.25 118.55,83.25L418.95,83.25C439.674,83.25 456.5,100.076 456.5,120.8Z" style="fill:white;"/>
            </g>
            <g transform="matrix(2.22439,0,0,2.22439,717,271)">
                <g transform="matrix(1,0,0,1,-85.4167,-85.4167)">
                    <g transform="matrix(4.16667,0,0,4.16667,0,0)">
                        <path d="M4,4.5L11,4.5M12,4.5L13,4.5M14,4.5L17,4.5M18,4.5L21,4.5M22,4.5L24,4.5M27,4.5L28,4.5M30,4.5L37,4.5M4,5.5L5,5.5M10,5.5L11,5.5M12,5.5L14,5.5M15,5.5L17,5.5M18,5.5L22,5.5M27,5.5L28,5.5M30,5.5L31,5.5M36,5.5L37,5.5M4,6.5L5,6.5M6,6.5L9,6.5M10,6.5L11,6.5M16,6.5L21,6.5M22,6.5L25,6.5M26,6.5L27,6.5M28,6.5L29,6.5M30,6.5L31,6.5M32,6.5L35,6.5M36,6.5L37,6.5M4,7.5L5,7.5M6,7.5L9,7.5M10,7.5L11,7.5M12,7.5L13,7.5M14,7.5L15,7.5M22,7.5L24,7.5M25,7.5L26,7.5M27,7.5L28,7.5M30,7.5L31,7.5M32,7.5L35,7.5M36,7.5L37,7.5M4,8.5L5,8.5M6,8.5L9,8.5M10,8.5L11,8.5M13,8.5L17,8.5M20,8.5L21,8.5M22,8.5L23,8.5M25,8.5L26,8.5M27,8.5L29,8.5M30,8.5L31,8.5M32,8.5L35,8.5M36,8.5L37,8.5M4,9.5L5,9.5M10,9.5L11,9.5M13,9.5L14,9.5M17,9.5L18,9.5M19,9.5L23,9.5M26,9.5L28,9.5M30,9.5L31,9.5M36,9.5L37,9.5M4,10.5L11,10.5M12,10.5L13,10.5M14,10.5L15,10.5M16,10.5L17,10.5M18,10.5L19,10.5M20,10.5L21,10.5M22,10.5L23,10.5M24,10.5L25,10.5M26,10.5L27,10.5M28,10.5L29,10.5M30,10.5L37,10.5M12,11.5L13,11.5M15,11.5L17,11.5M18,11.5L24,11.5M26,11.5L29,11.5M4,12.5L5,12.5M6,12.5L8,12.5M9,12.5L12,12.5M15,12.5L17,12.5M19,12.5L20,12.5M21,12.5L23,12.5M25,12.5L26,12.5M27,12.5L28,12.5M30,12.5L31,12.5M33,12.5L34,12.5M35,12.5L37,12.5M8,13.5L9,13.5M11,13.5L14,13.5M17,13.5L19,13.5M21,13.5L25,13.5M26,13.5L28,13.5M30,13.5L32,13.5M33,13.5L37,13.5M4,14.5L7,14.5M8,14.5L11,14.5M12,14.5L18,14.5M20,14.5L21,14.5M22,14.5L23,14.5M25,14.5L34,14.5M4,15.5L6,15.5M11,15.5L12,15.5M14,15.5L17,15.5M19,15.5L22,15.5M24,15.5L27,15.5M31,15.5L32,15.5M33,15.5L34,15.5M4,16.5L5,16.5M6,16.5L8,16.5M9,16.5L11,16.5M13,16.5L16,16.5M18,16.5L21,16.5M23,16.5L27,16.5M28,16.5L32,16.5M33,16.5L34,16.5M36,16.5L37,16.5M4,17.5L5,17.5M7,17.5L8,17.5M11,17.5L12,17.5M15,17.5L19,17.5M21,17.5L22,17.5M24,17.5L25,17.5M27,17.5L29,17.5M30,17.5L34,17.5M35,17.5L36,17.5M4,18.5L6,18.5M8,18.5L11,18.5M12,18.5L16,18.5M18,18.5L19,18.5M21,18.5L25,18.5M26,18.5L28,18.5M30,18.5L34,18.5M5,19.5L7,19.5M9,19.5L10,19.5M13,19.5L15,19.5M17,19.5L20,19.5M22,19.5L23,19.5M25,19.5L26,19.5M28,19.5L34,19.5M4,20.5L5,20.5M6,20.5L8,20.5M9,20.5L12,20.5M17,20.5L19,20.5M20,20.5L21,20.5M22,20.5L23,20.5M24,20.5L27,20.5M29,20.5L31,20.5M32,20.5L35,20.5M4,21.5L5,21.5M7,21.5L9,21.5M12,21.5L13,21.5M16,21.5L17,21.5M19,21.5L21,21.5M24,21.5L25,21.5M26,21.5L29,21.5M30,21.5L31,21.5M32,21.5L34,21.5M35,21.5L37,21.5M5,22.5L6,22.5M8,22.5L9,22.5M10,22.5L11,22.5M12,22.5L13,22.5M14,22.5L16,22.5M17,22.5L19,22.5M22,22.5L23,22.5M24,22.5L26,22.5M28,22.5L29,22.5M30,22.5L33,22.5M34,22.5L35,22.5M36,22.5L37,22.5M5,23.5L6,23.5M7,23.5L10,23.5M12,23.5L14,23.5M15,23.5L16,23.5M17,23.5L18,23.5M21,23.5L25,23.5M26,23.5L27,23.5M28,23.5L31,23.5M32,23.5L33,23.5M35,23.5L37,23.5M4,24.5L7,24.5M8,24.5L11,24.5M12,24.5L15,24.5M16,24.5L17,24.5M18,24.5L21,24.5M23,24.5L24,24.5M26,24.5L28,24.5M29,24.5L31,24.5M32,24.5L35,24.5M36,24.5L37,24.5M4,25.5L6,25.5M19,25.5L22,25.5M24,25.5L27,25.5M28,25.5L29,25.5M30,25.5L31,25.5M32,25.5L33,25.5M34,25.5L35,25.5M36,25.5L37,25.5M7,26.5L8,26.5M10,26.5L13,26.5M14,26.5L16,26.5M17,26.5L20,26.5M23,26.5L25,26.5M28,26.5L29,26.5M30,26.5L32,26.5M35,26.5L37,26.5M5,27.5L6,27.5M7,27.5L8,27.5M11,27.5L13,27.5M14,27.5L17,27.5M19,27.5L20,27.5M22,27.5L23,27.5M24,27.5L25,27.5M28,27.5L29,27.5M34,27.5L35,27.5M4,28.5L5,28.5M6,28.5L7,28.5M9,28.5L11,28.5M12,28.5L13,28.5M15,28.5L17,28.5M18,28.5L19,28.5M20,28.5L22,28.5M23,28.5L24,28.5M26,28.5L35,28.5M36,28.5L37,28.5M12,29.5L15,29.5M18,29.5L19,29.5M22,29.5L24,29.5M25,29.5L29,29.5M32,29.5L34,29.5M35,29.5L37,29.5M4,30.5L11,30.5M12,30.5L13,30.5M18,30.5L19,30.5M20,30.5L24,30.5M25,30.5L26,30.5M27,30.5L29,30.5M30,30.5L31,30.5M32,30.5L33,30.5M36,30.5L37,30.5M4,31.5L5,31.5M10,31.5L11,31.5M12,31.5L14,31.5M15,31.5L16,31.5M19,31.5L20,31.5M21,31.5L25,31.5M28,31.5L29,31.5M32,31.5L36,31.5M4,32.5L5,32.5M6,32.5L9,32.5M10,32.5L11,32.5M14,32.5L15,32.5M17,32.5L19,32.5M20,32.5L24,32.5M26,32.5L33,32.5M34,32.5L35,32.5M4,33.5L5,33.5M6,33.5L9,33.5M10,33.5L11,33.5M12,33.5L13,33.5M14,33.5L16,33.5M17,33.5L19,33.5M20,33.5L22,33.5M23,33.5L24,33.5M25,33.5L27,33.5M28,33.5L29,33.5M31,33.5L32,33.5M4,34.5L5,34.5M6,34.5L9,34.5M10,34.5L11,34.5M12,34.5L13,34.5M17,34.5L21,34.5M22,34.5L23,34.5M24,34.5L26,34.5M28,34.5L32,34.5M33,34.5L35,34.5M4,35.5L5,35.5M10,35.5L11,35.5M13,35.5L14,35.5M15,35.5L16,35.5M21,35.5L22,35.5M24,35.5L25,35.5M26,35.5L28,35.5M31,35.5L33,35.5M34,35.5L35,35.5M36,35.5L37,35.5M4,36.5L11,36.5M12,36.5L16,36.5M17,36.5L19,36.5M23,36.5L24,36.5M25,36.5L29,36.5M32,36.5L33,36.5" style="fill-rule:nonzero;stroke:rgb(21,120,255);stroke-width:1px;"/>
                    </g>
                </g>
            </g>
        </g>
        <g id="WechatPay" transform="matrix(1,0,0,1,-6.5,80)">
            <g transform="matrix(1.01198,0,0,1.01198,-5.47071,-3.24767)">
                <path d="M456.5,120.8L456.5,421.2C456.5,441.924 439.674,458.75 418.95,458.75L118.55,458.75C97.826,458.75 81,441.924 81,421.2L81,120.8C81,100.076 97.826,83.25 118.55,83.25L418.95,83.25C439.674,83.25 456.5,100.076 456.5,120.8Z" style="fill:white;"/>
            </g>
            <g transform="matrix(2.02667,0,0,2.02667,266.5,271)">
                <g transform="matrix(1,0,0,1,-93.75,-93.75)">
                    <g transform="matrix(4.16667,0,0,4.16667,0,0)">
                        <path d="M4,4.5L11,4.5M13,4.5L14,4.5M15,4.5L17,4.5M18,4.5L21,4.5M25,4.5L30,4.5M31,4.5L33,4.5M34,4.5L41,4.5M4,5.5L5,5.5M10,5.5L11,5.5M13,5.5L14,5.5M15,5.5L16,5.5M18,5.5L19,5.5M20,5.5L21,5.5M22,5.5L23,5.5M24,5.5L25,5.5M29,5.5L30,5.5M31,5.5L33,5.5M34,5.5L35,5.5M40,5.5L41,5.5M4,6.5L5,6.5M6,6.5L9,6.5M10,6.5L11,6.5M12,6.5L13,6.5M15,6.5L17,6.5M18,6.5L19,6.5M22,6.5L23,6.5M25,6.5L27,6.5M28,6.5L29,6.5M34,6.5L35,6.5M36,6.5L39,6.5M40,6.5L41,6.5M4,7.5L5,7.5M6,7.5L9,7.5M10,7.5L11,7.5M12,7.5L15,7.5M16,7.5L18,7.5M19,7.5L20,7.5M24,7.5L25,7.5M27,7.5L28,7.5M30,7.5L33,7.5M34,7.5L35,7.5M36,7.5L39,7.5M40,7.5L41,7.5M4,8.5L5,8.5M6,8.5L9,8.5M10,8.5L11,8.5M12,8.5L14,8.5M17,8.5L19,8.5M21,8.5L25,8.5M26,8.5L28,8.5M29,8.5L30,8.5M32,8.5L33,8.5M34,8.5L35,8.5M36,8.5L39,8.5M40,8.5L41,8.5M4,9.5L5,9.5M10,9.5L11,9.5M12,9.5L13,9.5M14,9.5L16,9.5M17,9.5L19,9.5M21,9.5L22,9.5M25,9.5L26,9.5M29,9.5L33,9.5M34,9.5L35,9.5M40,9.5L41,9.5M4,10.5L11,10.5M12,10.5L13,10.5M14,10.5L15,10.5M16,10.5L17,10.5M18,10.5L19,10.5M20,10.5L21,10.5M22,10.5L23,10.5M24,10.5L25,10.5M26,10.5L27,10.5M28,10.5L29,10.5M30,10.5L31,10.5M32,10.5L33,10.5M34,10.5L41,10.5M12,11.5L13,11.5M15,11.5L16,11.5M20,11.5L24,11.5M25,11.5L27,11.5M28,11.5L29,11.5M4,12.5L5,12.5M6,12.5L11,12.5M15,12.5L18,12.5M20,12.5L21,12.5M23,12.5L24,12.5M26,12.5L30,12.5M31,12.5L32,12.5M34,12.5L39,12.5M4,13.5L5,13.5M6,13.5L7,13.5M8,13.5L10,13.5M11,13.5L12,13.5M16,13.5L18,13.5M19,13.5L20,13.5M22,13.5L23,13.5M24,13.5L27,13.5M29,13.5L34,13.5M37,13.5L40,13.5M4,14.5L5,14.5M7,14.5L9,14.5M10,14.5L11,14.5M14,14.5L16,14.5M19,14.5L22,14.5M23,14.5L24,14.5M26,14.5L27,14.5M29,14.5L32,14.5M33,14.5L35,14.5M37,14.5L41,14.5M6,15.5L7,15.5M16,15.5L17,15.5M19,15.5L20,15.5M22,15.5L27,15.5M28,15.5L29,15.5M30,15.5L32,15.5M40,15.5L41,15.5M5,16.5L9,16.5M10,16.5L11,16.5M13,16.5L18,16.5M19,16.5L22,16.5M23,16.5L24,16.5M26,16.5L27,16.5M29,16.5L31,16.5M32,16.5L33,16.5M34,16.5L35,16.5M36,16.5L38,16.5M4,17.5L7,17.5M8,17.5L10,17.5M11,17.5L13,17.5M17,17.5L18,17.5M22,17.5L23,17.5M24,17.5L26,17.5M29,17.5L30,17.5M31,17.5L34,17.5M35,17.5L36,17.5M37,17.5L38,17.5M39,17.5L41,17.5M4,18.5L5,18.5M6,18.5L7,18.5M9,18.5L11,18.5M13,18.5L14,18.5M15,18.5L18,18.5M19,18.5L20,18.5M22,18.5L23,18.5M24,18.5L25,18.5M26,18.5L27,18.5M28,18.5L29,18.5M31,18.5L32,18.5M36,18.5L38,18.5M39,18.5L41,18.5M4,19.5L6,19.5M7,19.5L8,19.5M9,19.5L10,19.5M11,19.5L12,19.5M17,19.5L18,19.5M19,19.5L20,19.5M25,19.5L26,19.5M27,19.5L28,19.5M31,19.5L32,19.5M34,19.5L35,19.5M37,19.5L38,19.5M39,19.5L40,19.5M4,20.5L5,20.5M6,20.5L7,20.5M9,20.5L11,20.5M12,20.5L13,20.5M18,20.5L19,20.5M22,20.5L23,20.5M26,20.5L27,20.5M29,20.5L31,20.5M32,20.5L33,20.5M34,20.5L37,20.5M38,20.5L40,20.5M5,21.5L10,21.5M12,21.5L13,21.5M16,21.5L18,21.5M19,21.5L21,21.5M25,21.5L27,21.5M29,21.5L30,21.5M33,21.5L34,21.5M35,21.5L36,21.5M38,21.5L40,21.5M5,22.5L7,22.5M8,22.5L9,22.5M10,22.5L12,22.5M14,22.5L18,22.5M24,22.5L27,22.5M28,22.5L29,22.5M31,22.5L32,22.5M34,22.5L36,22.5M37,22.5L38,22.5M39,22.5L41,22.5M6,23.5L8,23.5M9,23.5L10,23.5M11,23.5L16,23.5M17,23.5L19,23.5M20,23.5L21,23.5M25,23.5L26,23.5M27,23.5L29,23.5M34,23.5L38,23.5M39,23.5L40,23.5M10,24.5L13,24.5M14,24.5L15,24.5M18,24.5L19,24.5M23,24.5L24,24.5M26,24.5L28,24.5M29,24.5L32,24.5M33,24.5L37,24.5M38,24.5L41,24.5M7,25.5L10,25.5M12,25.5L14,25.5M15,25.5L16,25.5M20,25.5L23,25.5M24,25.5L26,25.5M27,25.5L29,25.5M32,25.5L33,25.5M34,25.5L35,25.5M37,25.5L39,25.5M40,25.5L41,25.5M5,26.5L7,26.5M9,26.5L11,26.5M13,26.5L15,26.5M17,26.5L18,26.5M19,26.5L20,26.5M21,26.5L22,26.5M25,26.5L26,26.5M29,26.5L30,26.5M31,26.5L35,26.5M36,26.5L41,26.5M4,27.5L7,27.5M8,27.5L10,27.5M11,27.5L12,27.5M14,27.5L16,27.5M17,27.5L19,27.5M20,27.5L23,27.5M25,27.5L26,27.5M27,27.5L28,27.5M33,27.5L36,27.5M37,27.5L38,27.5M39,27.5L41,27.5M4,28.5L6,28.5M10,28.5L11,28.5M12,28.5L14,28.5M17,28.5L21,28.5M24,28.5L27,28.5M30,28.5L32,28.5M33,28.5L35,28.5M36,28.5L39,28.5M4,29.5L5,29.5M7,29.5L8,29.5M9,29.5L10,29.5M12,29.5L14,29.5M17,29.5L20,29.5M22,29.5L24,29.5M27,29.5L28,29.5M29,29.5L30,29.5M32,29.5L33,29.5M34,29.5L36,29.5M37,29.5L40,29.5M4,30.5L5,30.5M10,30.5L13,30.5M15,30.5L16,30.5M17,30.5L21,30.5M24,30.5L26,30.5M31,30.5L34,30.5M35,30.5L36,30.5M37,30.5L38,30.5M39,30.5L41,30.5M4,31.5L5,31.5M7,31.5L10,31.5M11,31.5L12,31.5M13,31.5L14,31.5M16,31.5L17,31.5M18,31.5L20,31.5M22,31.5L24,31.5M25,31.5L27,31.5M32,31.5L34,31.5M4,32.5L5,32.5M6,32.5L8,32.5M10,32.5L14,32.5M19,32.5L21,32.5M24,32.5L25,32.5M27,32.5L37,32.5M38,32.5L39,32.5M12,33.5L19,33.5M23,33.5L24,33.5M26,33.5L27,33.5M30,33.5L31,33.5M32,33.5L33,33.5M36,33.5L37,33.5M38,33.5L40,33.5M4,34.5L11,34.5M14,34.5L15,34.5M17,34.5L18,34.5M19,34.5L21,34.5M22,34.5L23,34.5M25,34.5L26,34.5M30,34.5L33,34.5M34,34.5L35,34.5M36,34.5L37,34.5M38,34.5L39,34.5M40,34.5L41,34.5M4,35.5L5,35.5M10,35.5L11,35.5M12,35.5L21,35.5M23,35.5L24,35.5M25,35.5L26,35.5M27,35.5L29,35.5M32,35.5L33,35.5M36,35.5L38,35.5M40,35.5L41,35.5M4,36.5L5,36.5M6,36.5L9,36.5M10,36.5L11,36.5M12,36.5L14,36.5M17,36.5L19,36.5M22,36.5L23,36.5M25,36.5L29,36.5M30,36.5L41,36.5M4,37.5L5,37.5M6,37.5L9,37.5M10,37.5L11,37.5M12,37.5L13,37.5M15,37.5L16,37.5M17,37.5L21,37.5M24,37.5L26,37.5M27,37.5L28,37.5M30,37.5L35,37.5M36,37.5L38,37.5M40,37.5L41,37.5M4,38.5L5,38.5M6,38.5L9,38.5M10,38.5L11,38.5M12,38.5L14,38.5M16,38.5L18,38.5M22,38.5L23,38.5M24,38.5L25,38.5M35,38.5L36,38.5M38,38.5L41,38.5M4,39.5L5,39.5M10,39.5L11,39.5M16,39.5L17,39.5M18,39.5L19,39.5M20,39.5L21,39.5M23,39.5L26,39.5M27,39.5L28,39.5M30,39.5L32,39.5M33,39.5L37,39.5M40,39.5L41,39.5M4,40.5L11,40.5M12,40.5L14,40.5M15,40.5L16,40.5M17,40.5L18,40.5M21,40.5L24,40.5M26,40.5L29,40.5M30,40.5L31,40.5M34,40.5L37,40.5M38,40.5L41,40.5" style="fill-rule:nonzero;stroke:rgb(6,191,95);stroke-width:1px;"/>
                    </g>
                </g>
            </g>
        </g>
    </g>
    <g transform="matrix(0.64701,0,0,0.64701,563.855,104.17)">
        <clipPath id="_clip1">
            <rect x="-550" y="-70.833" width="160.739" height="141.667"/>
        </clipPath>
        <g clip-path="url(#_clip1)">
            <g transform="matrix(1,0,0,1,-550,-70.8333)">
                <g id="组件" transform="matrix(4.16667,0,0,4.16667,0,0)">
                    <g id="导航-头部菜单_内容" serif:id="导航/头部菜单_内容">
                        <g id="logo">
                            <g id="微信支付logo">
                                <path id="XMLID_81_" d="M13.988,21.416C13.813,21.504 13.637,21.548 13.418,21.548C12.936,21.548 12.541,21.283 12.322,20.886L12.234,20.709L8.77,13.114C8.726,13.026 8.726,12.938 8.726,12.849C8.726,12.496 8.989,12.231 9.34,12.231C9.471,12.231 9.603,12.275 9.735,12.364L13.813,15.278C14.119,15.455 14.47,15.587 14.865,15.587C15.084,15.587 15.303,15.543 15.523,15.455L34.641,6.888C31.221,2.826 25.564,0.177 19.162,0.177C8.726,0.177 0.219,7.286 0.219,16.073C0.219,20.842 2.763,25.169 6.753,28.083C7.06,28.304 7.279,28.701 7.279,29.099C7.279,29.231 7.235,29.364 7.191,29.496C6.884,30.688 6.358,32.631 6.358,32.719C6.314,32.852 6.27,33.029 6.27,33.205C6.27,33.558 6.534,33.823 6.884,33.823C7.016,33.823 7.147,33.779 7.235,33.691L11.357,31.262C11.664,31.086 12.015,30.953 12.366,30.953C12.541,30.953 12.76,30.997 12.936,31.042C14.865,31.616 16.97,31.925 19.118,31.925C29.554,31.925 38.061,24.816 38.061,16.029C38.061,13.379 37.272,10.862 35.913,8.655L14.119,21.327L13.988,21.416Z" style="fill:rgb(34,172,56);"/>
                                <rect id="XMLID_80_" x="83.621" y="11.436" width="14.207" height="1.281" style="fill:rgb(73,73,73);"/>
                                <rect id="XMLID_79_" x="83.621" y="15.41" width="14.207" height="1.369" style="fill:rgb(73,73,73);"/>
                                <path id="XMLID_76_" d="M97.433,27.288L97.433,19.517L83.971,19.517L83.971,27.244L97.433,27.244L97.433,27.288ZM85.331,20.797L96.074,20.797L96.074,25.964L85.331,25.964L85.331,20.797Z" style="fill:rgb(73,73,73);fill-rule:nonzero;"/>
                                <path id="XMLID_75_" d="M79.718,28.127L79.718,10.288C80.507,8.522 81.253,6.668 81.823,4.769L80.551,4.018C79.28,8.478 77.482,12.496 75.158,15.896L75.903,17.221C76.692,16.029 77.526,14.616 78.359,13.158L78.359,28.127L79.718,28.127Z" style="fill:rgb(73,73,73);"/>
                                <path id="XMLID_74_" d="M131.285,28.127L131.285,10.288C132.074,8.522 132.82,6.668 133.39,4.769L132.118,4.018C130.846,8.478 129.049,12.496 126.725,15.896L127.47,17.221C128.259,16.029 129.092,14.616 129.926,13.158L129.926,28.127L131.285,28.127Z" style="fill:rgb(73,73,73);"/>
                                <path id="XMLID_73_" d="M99.319,7.33L90.987,7.33L91.864,6.8L91.908,6.8L91.908,6.756C91.82,6.535 91.557,5.961 91.25,5.343C90.987,4.769 90.724,4.239 90.593,3.93L90.593,3.886L89.321,4.636L89.321,4.681C89.76,5.519 90.154,6.314 90.505,7.065C90.549,7.153 90.593,7.242 90.593,7.286L82.261,7.286L82.261,8.655L99.319,8.655L99.319,7.33Z" style="fill:rgb(73,73,73);"/>
                                <path id="XMLID_72_" d="M62.661,6.27L61.389,6.27L61.389,10.774L58.977,10.774L58.977,4.371L57.706,4.371L57.706,10.774L55.206,10.774L55.206,6.27L53.935,6.27L53.935,12.055L62.661,12.055L62.661,6.27Z" style="fill:rgb(73,73,73);"/>
                                <rect id="XMLID_71_" x="54.329" y="14.571" width="7.717" height="1.281" style="fill:rgb(73,73,73);"/>
                                <path id="XMLID_70_" d="M55.996,20.842L55.996,19.694L59.898,19.694L59.898,22.519C59.854,23.535 59.81,23.844 59.46,24.286L60.249,25.655L60.293,25.61C60.994,25.036 62.134,24.065 63.757,22.608L63.801,22.608L63.187,21.548L63.143,21.504L61.17,23.182L61.17,18.369L54.636,18.369L54.636,20.312C54.812,22.961 54.154,24.86 52.663,25.964L52.619,25.964L53.321,27.2L53.365,27.244L53.408,27.2C55.25,25.743 56.127,23.579 55.996,20.842Z" style="fill:rgb(73,73,73);"/>
                                <path id="XMLID_69_" d="M47.664,10.421L48.453,11.745C50.427,9.758 52.137,7.374 53.365,4.769L52.181,4.062C50.909,6.623 49.374,8.787 47.664,10.421Z" style="fill:rgb(73,73,73);"/>
                                <path id="XMLID_68_" d="M47.313,18.501L48.015,19.738L48.059,19.782L48.103,19.738C48.848,18.855 49.594,17.927 50.295,16.956L50.295,28.083L51.567,28.083L51.567,14.836C52.137,13.821 52.707,12.673 53.233,11.392L53.233,11.348L52.005,10.642L52.005,10.686C50.778,13.644 49.243,16.294 47.313,18.501Z" style="fill:rgb(73,73,73);"/>
                                <path id="XMLID_65_" d="M72.001,10.068L72.001,8.787L66.344,8.787C66.826,7.286 67.396,5.564 67.572,4.106L66.256,4.106C65.423,7.992 64.152,11.392 62.529,14.042L63.318,15.455L63.888,14.262C64.108,13.865 64.283,13.556 64.415,13.291C64.809,16.735 65.511,19.517 66.476,21.548C65.555,23.182 64.108,24.86 62.178,26.582L62.134,26.582L62.88,27.862L62.924,27.906L62.968,27.862C64.985,25.964 66.388,24.286 67.133,22.917C67.966,24.418 69.413,26.229 71.036,27.951L71.08,27.995L71.825,26.67L71.825,26.626L71.781,26.626C70.027,24.904 68.624,23.138 67.835,21.636C69.282,18.987 70.159,15.101 70.51,10.068L72.001,10.068ZM67.309,20.003C66.476,17.839 65.862,14.881 65.467,11.216C65.599,10.818 65.774,10.421 65.949,10.068L69.37,10.068C69.063,14.218 68.405,17.574 67.309,20.003Z" style="fill:rgb(73,73,73);fill-rule:nonzero;"/>
                                <path id="XMLID_35_" d="M125.102,8.699L125.102,7.33L114.271,7.33L114.271,3.842L112.868,3.842L112.868,7.33L102.125,7.33L102.125,8.699L112.868,8.699L112.868,13.247L105.896,13.247L105.896,14.483C105.896,14.483 106.948,16.912 109.141,19.561C110.018,20.621 111.026,21.725 112.342,22.829C109.886,24.33 106.861,25.787 102.607,26.626L103.397,28.039C103.397,28.039 108.439,26.979 113.438,23.712C114.096,24.153 117.209,26.626 122.997,28.039L123.041,28.039L123.611,26.979C123.611,26.979 122.12,26.582 119.84,25.699C118.262,25.081 116.288,24.153 114.403,22.873C117.209,20.797 119.709,17.795 121.2,13.953L120.059,13.291L114.227,13.291L114.227,8.699L125.102,8.699ZM119.621,14.439C119.621,14.439 118.218,18.457 113.438,21.901C111.158,20.135 108.79,17.574 107.299,14.439L119.621,14.439Z" style="fill:rgb(73,73,73);fill-rule:nonzero;"/>
                                <path id="XMLID_34_" d="M142.554,26.317L141.765,26.317L141.765,27.686L142.949,27.686C144.308,27.686 145.01,27.377 145.624,26.803C146.194,26.229 146.457,25.39 146.413,24.242L146.413,11.392L150.096,11.392L150.096,10.023L146.413,10.023L146.413,4.106L145.054,4.106L145.054,10.023L133.74,10.023L133.74,11.392L145.054,11.392L145.054,24.242C145.01,25.655 144.133,26.317 142.554,26.317Z" style="fill:rgb(73,73,73);"/>
                                <path id="XMLID_33_" d="M139.485,21.725L140.844,20.93C140.099,19.429 139.134,17.442 137.95,15.013L136.722,15.764C137.511,17.397 138.432,19.384 139.485,21.725Z" style="fill:rgb(73,73,73);"/>
                            </g>
                        </g>
                    </g>
                </g>
            </g>
        </g>
    </g>
    <g transform="matrix(1,0,0,1,1021.5,109.583)">
        <clipPath id="_clip2">
            <rect x="-341.667" y="-60.417" width="120.333" height="120.833"/>
        </clipPath>
        <g clip-path="url(#_clip2)">
            <g transform="matrix(1,0,0,1,-341.667,-60.4167)">
                <clipPath id="_clip3">
                    <rect x="0" y="0" width="683.333" height="120.833"/>
                </clipPath>
                <g clip-path="url(#_clip3)">
                    <g transform="matrix(4.16667,0,0,4.16667,0,0)">
                        <g>
                            <g>
                                <g>
                                    <path d="M36.691,23.449L38.048,23.449L38.048,2.467C38.048,1.473 37.233,0.667 36.227,0.667L34.914,0.667L34.914,21.693C34.914,22.663 35.709,23.449 36.691,23.449Z" style="fill:white;fill-rule:nonzero;"/>
                                    <path d="M1.73,18.485C1.722,22.659 10.43,24.343 14.482,21.755C15.286,21.223 16.032,20.618 16.716,19.952C16.579,19.861 15.887,19.363 15.093,18.853C14.512,18.48 13.86,18.109 13.407,17.845C8.556,23.377 1.73,21.912 1.73,18.485Z" style="fill:rgb(21,120,255);fill-opacity:0.7;fill-rule:nonzero;"/>
                                    <path d="M23.719,3.822L15.927,3.822L15.927,0.21C15.927,0.094 15.831,0 15.712,0C12.549,0 11.857,0.771 11.857,1.777L11.857,3.822L4.462,3.822C4.021,3.822 3.827,4.833 3.827,5.546C3.827,5.665 3.92,5.762 4.04,5.762L11.857,5.762L11.857,8.319L6.677,8.319C6.235,8.319 6.041,9.362 6.042,10.05C6.042,10.165 6.137,10.259 6.255,10.259L16.659,10.259C16.447,12.094 15.94,13.722 15.232,15.129C16.51,15.725 17.789,16.363 19.134,16.953C20.705,14.456 21.665,11.595 21.684,8.743C21.685,8.509 21.495,8.319 21.26,8.319L15.928,8.319L15.928,5.762L23.297,5.762C23.738,5.762 23.932,4.792 23.932,4.038C23.932,3.92 23.839,3.822 23.719,3.822Z" style="fill:rgb(21,120,255);fill-opacity:0.7;fill-rule:nonzero;"/>
                                    <path d="M26.089,24.116C28.042,24.116 28.554,21.705 28.644,19.81C28.662,19.439 28.369,19.127 27.993,19.115C22.647,18.95 18.937,16.855 15.231,15.129C19.321,18.596 21.075,24.116 26.089,24.116Z" style="fill:rgb(21,120,255);fill-opacity:0.7;fill-rule:nonzero;"/>
                                    <path d="M1.729,18.485C1.729,16.699 3.717,15.41 6.128,15.41C8.54,15.41 11.06,16.468 13.405,17.845C14.523,18.502 15.624,19.231 16.716,19.952C19.822,22.01 22.836,24.009 25.847,24.112C21.016,23.938 19.255,18.541 15.23,15.129C12.555,13.883 9.881,12.827 6.596,12.827C2.723,12.827 0,15.32 0,18.485C0,18.958 0.388,19.341 0.865,19.341C1.343,19.341 1.73,18.958 1.73,18.485L1.729,18.485Z" style="fill:rgb(21,120,255);fill-rule:nonzero;"/>
                                    <path d="M0,18.485C0,21.611 2.786,24.116 6.597,24.116C9.591,24.116 12.255,23.223 14.477,21.758C10.416,24.337 1.729,22.657 1.729,18.486C1.729,18.014 1.342,17.631 0.864,17.631C0.387,17.631 -0.001,18.014 -0.001,18.486L0,18.485Z" style="fill:rgb(21,120,255);fill-opacity:0.7;fill-rule:nonzero;"/>
                                    <path d="M74.515,0.667L71.6,0.667C71.153,0.667 70.79,1.026 70.79,1.468L70.79,22.646C70.79,23.088 71.153,23.446 71.6,23.446L74.515,23.446C74.963,23.446 75.326,23.088 75.326,22.646L75.326,1.468C75.326,1.026 74.963,0.667 74.515,0.667Z" style="fill:white;fill-rule:nonzero;"/>
                                    <path d="M55.442,7.232C55.586,6.876 56.096,6.878 56.24,7.234C57.364,10.018 62.478,22.618 62.478,22.618C62.647,23.079 63.077,23.448 63.647,23.448L66.777,23.448C67.185,23.448 67.474,23.037 67.32,22.66C65.907,19.199 59.972,5.282 58.309,1.371C58.127,0.943 57.703,0.669 57.234,0.669L54.443,0.669C53.975,0.669 53.549,0.943 53.368,1.371C51.799,5.057 45.77,19.206 44.358,22.665C44.205,23.041 44.494,23.448 44.899,23.448L47.91,23.448C48.469,23.448 48.99,23.158 49.2,22.618L55.441,7.233L55.442,7.232Z" style="fill:white;fill-rule:nonzero;"/>
                                    <path d="M69.871,9.926C69.531,9.146 69.014,8.092 68.547,7.483C68.289,7.145 67.917,7.056 67.442,7.153C61.425,8.381 56.947,11.147 55.146,12.945C52.367,15.718 52.388,18.386 54.13,19.92C53.538,18.775 54.398,17.176 56.925,15.485C61.629,12.338 69.347,10.871 69.364,10.869C69.796,10.782 70.046,10.327 69.873,9.926L69.871,9.926Z" style="fill:white;fill-rule:nonzero;"/>
                                    <path d="M54.238,18.123C53.893,18.792 53.862,19.402 54.13,19.919C54.854,20.577 56.809,21.561 61.995,21.425L60.995,18.962C58.673,19.208 55.474,19.292 54.238,18.123Z" style="fill:white;fill-opacity:0.7;fill-rule:nonzero;"/>
                                </g>
                            </g>
                        </g>
                    </g>
                </g>
            </g>
        </g>
    </g>
</svg>
